<svg id="visual" viewBox="0 0 900 600" width="900" height="600" xmlns="http://www.w3.org/2000/svg" xmlns:xlink="http://www.w3.org/1999/xlink" version="1.1"><rect x="0" y="0" width="900" height="600" fill="#c3e8f5"></rect><path d="M0 536L4.8 532.8C9.7 529.7 19.3 523.3 29 521.8C38.7 520.3 48.3 523.7 58 524.5C67.7 525.3 77.3 523.7 87 525C96.7 526.3 106.3 530.7 116 526C125.7 521.3 135.3 507.7 145 501C154.7 494.3 164.3 494.7 174 499.7C183.7 504.7 193.3 514.3 203 511.5C212.7 508.7 222.3 493.3 232 489.8C241.7 486.3 251.3 494.7 261 500.2C270.7 505.7 280.3 508.3 290 503.7C299.7 499 309.3 487 319 488.3C328.7 489.7 338.3 504.3 348 506.2C357.7 508 367.3 497 377 500.8C386.7 504.7 396.3 523.3 406 532.8C415.7 542.3 425.3 542.7 435.2 539.2C445 535.7 455 528.3 464.8 525.7C474.7 523 484.3 525 494 522.8C503.7 520.7 513.3 514.3 523 506.2C532.7 498 542.3 488 552 493.3C561.7 498.7 571.3 519.3 581 519.5C590.7 519.7 600.3 499.3 610 495.2C619.7 491 629.3 503 639 510.8C648.7 518.7 658.3 522.3 668 516.3C677.7 510.3 687.3 494.7 697 491.2C706.7 487.7 716.3 496.3 726 506.2C735.7 516 745.3 527 755 531.8C764.7 536.7 774.3 535.3 784 528.8C793.7 522.3 803.3 510.7 813 512.2C822.7 513.7 832.3 528.3 842 531C851.7 533.7 861.3 524.3 871 524C880.7 523.7 890.3 532.3 895.2 536.7L900 541L900 601L895.2 601C890.3 601 880.7 601 871 601C861.3 601 851.7 601 842 601C832.3 601 822.7 601 813 601C803.3 601 793.7 601 784 601C774.3 601 764.7 601 755 601C745.3 601 735.7 601 726 601C716.3 601 706.7 601 697 601C687.3 601 677.7 601 668 601C658.3 601 648.7 601 639 601C629.3 601 619.7 601 610 601C600.3 601 590.7 601 581 601C571.3 601 561.7 601 552 601C542.3 601 532.7 601 523 601C513.3 601 503.7 601 494 601C484.3 601 474.7 601 464.8 601C455 601 445 601 435.2 601C425.3 601 415.7 601 406 601C396.3 601 386.7 601 377 601C367.3 601 357.7 601 348 601C338.3 601 328.7 601 319 601C309.3 601 299.7 601 290 601C280.3 601 270.7 601 261 601C251.3 601 241.7 601 232 601C222.3 601 212.7 601 203 601C193.3 601 183.7 601 174 601C164.3 601 154.7 601 145 601C135.3 601 125.7 601 116 601C106.3 601 96.7 601 87 601C77.3 601 67.7 601 58 601C48.3 601 38.7 601 29 601C19.3 601 9.7 601 4.8 601L0 601Z" fill="#10baf5" stroke-linecap="round" stroke-linejoin="miter"></path></svg>