<svg id="visual" viewBox="0 0 900 600" width="900" height="600" xmlns="http://www.w3.org/2000/svg" xmlns:xlink="http://www.w3.org/1999/xlink" version="1.1"><path d="M0 397L10 390.2C20 383.3 40 369.7 60 375.7C80 381.7 100 407.3 120 417.2C140 427 160 421 180 402.2C200 383.3 220 351.7 240 360.2C260 368.7 280 417.3 300 417.5C320 417.7 340 369.3 360 346.8C380 324.3 400 327.7 420 349.2C440 370.7 460 410.3 480 413.8C500 417.3 520 384.7 540 383.8C560 383 580 414 600 431C620 448 640 451 660 454.8C680 458.7 700 463.3 720 454.3C740 445.3 760 422.7 780 406.3C800 390 820 380 840 389.8C860 399.7 880 429.3 890 444.2L900 459L900 601L890 601C880 601 860 601 840 601C820 601 800 601 780 601C760 601 740 601 720 601C700 601 680 601 660 601C640 601 620 601 600 601C580 601 560 601 540 601C520 601 500 601 480 601C460 601 440 601 420 601C400 601 380 601 360 601C340 601 320 601 300 601C280 601 260 601 240 601C220 601 200 601 180 601C160 601 140 601 120 601C100 601 80 601 60 601C40 601 20 601 10 601L0 601Z" fill="#10baf5"></path><path d="M0 480L10 471.7C20 463.3 40 446.7 60 446.2C80 445.7 100 461.3 120 466C140 470.7 160 464.3 180 454.5C200 444.7 220 431.3 240 436C260 440.7 280 463.3 300 476C320 488.7 340 491.3 360 482.2C380 473 400 452 420 444.3C440 436.7 460 442.3 480 452.7C500 463 520 478 540 469.2C560 460.3 580 427.7 600 409.3C620 391 640 387 660 400.7C680 414.3 700 445.7 720 449.5C740 453.3 760 429.7 780 418.7C800 407.7 820 409.3 840 405.3C860 401.3 880 391.7 890 386.8L900 382L900 601L890 601C880 601 860 601 840 601C820 601 800 601 780 601C760 601 740 601 720 601C700 601 680 601 660 601C640 601 620 601 600 601C580 601 560 601 540 601C520 601 500 601 480 601C460 601 440 601 420 601C400 601 380 601 360 601C340 601 320 601 300 601C280 601 260 601 240 601C220 601 200 601 180 601C160 601 140 601 120 601C100 601 80 601 60 601C40 601 20 601 10 601L0 601Z" fill="#10baf5"></path><path d="M0 449L10 448.5C20 448 40 447 60 458.5C80 470 100 494 120 502.7C140 511.3 160 504.7 180 504.8C200 505 220 512 240 508.3C260 504.7 280 490.3 300 481.8C320 473.3 340 470.7 360 472.8C380 475 400 482 420 483.5C440 485 460 481 480 486C500 491 520 505 540 496.8C560 488.7 580 458.3 600 444.2C620 430 640 432 660 433C680 434 700 434 720 441.7C740 449.3 760 464.7 780 477.5C800 490.3 820 500.7 840 503.2C860 505.7 880 500.3 890 497.7L900 495L900 601L890 601C880 601 860 601 840 601C820 601 800 601 780 601C760 601 740 601 720 601C700 601 680 601 660 601C640 601 620 601 600 601C580 601 560 601 540 601C520 601 500 601 480 601C460 601 440 601 420 601C400 601 380 601 360 601C340 601 320 601 300 601C280 601 260 601 240 601C220 601 200 601 180 601C160 601 140 601 120 601C100 601 80 601 60 601C40 601 20 601 10 601L0 601Z" fill="#10baf5"></path><path d="M0 472L10 478.2C20 484.3 40 496.7 60 498.5C80 500.3 100 491.7 120 489.5C140 487.3 160 491.7 180 491.5C200 491.3 220 486.7 240 489C260 491.3 280 500.7 300 502.3C320 504 340 498 360 494.8C380 491.7 400 491.3 420 498.8C440 506.3 460 521.7 480 527C500 532.3 520 527.7 540 522.5C560 517.3 580 511.7 600 509.5C620 507.3 640 508.7 660 510.7C680 512.7 700 515.3 720 514.2C740 513 760 508 780 505.8C800 503.7 820 504.3 840 509.3C860 514.3 880 523.7 890 528.3L900 533L900 601L890 601C880 601 860 601 840 601C820 601 800 601 780 601C760 601 740 601 720 601C700 601 680 601 660 601C640 601 620 601 600 601C580 601 560 601 540 601C520 601 500 601 480 601C460 601 440 601 420 601C400 601 380 601 360 601C340 601 320 601 300 601C280 601 260 601 240 601C220 601 200 601 180 601C160 601 140 601 120 601C100 601 80 601 60 601C40 601 20 601 10 601L0 601Z" fill="#10baf5"></path><path d="M0 512L10 517.3C20 522.7 40 533.3 60 535.2C80 537 100 530 120 529.5C140 529 160 535 180 540.3C200 545.7 220 550.3 240 550.8C260 551.3 280 547.7 300 543C320 538.3 340 532.7 360 535.5C380 538.3 400 549.7 420 555C440 560.3 460 559.7 480 554.3C500 549 520 539 540 540C560 541 580 553 600 556.5C620 560 640 555 660 549.3C680 543.7 700 537.3 720 539.2C740 541 760 551 780 549.5C800 548 820 535 840 530.2C860 525.3 880 528.7 890 530.3L900 532L900 601L890 601C880 601 860 601 840 601C820 601 800 601 780 601C760 601 740 601 720 601C700 601 680 601 660 601C640 601 620 601 600 601C580 601 560 601 540 601C520 601 500 601 480 601C460 601 440 601 420 601C400 601 380 601 360 601C340 601 320 601 300 601C280 601 260 601 240 601C220 601 200 601 180 601C160 601 140 601 120 601C100 601 80 601 60 601C40 601 20 601 10 601L0 601Z" fill="#10baf5"></path></svg>