<svg id="visual" viewBox="0 0 200 200" width="200" height="200" xmlns="http://www.w3.org/2000/svg" xmlns:xlink="http://www.w3.org/1999/xlink" version="1.1"><path d="M0 50L4.8 53.5C9.7 57 19.3 64 28.8 66.8C38.3 69.7 47.7 68.3 57.2 66.3C66.7 64.3 76.3 61.7 85.8 65.2C95.3 68.7 104.7 78.3 114.2 77.2C123.7 76 133.3 64 142.8 62.8C152.3 61.7 161.7 71.3 171.2 71.5C180.7 71.7 190.3 62.3 195.2 57.7L200 53L200 0L195.2 0C190.3 0 180.7 0 171.2 0C161.7 0 152.3 0 142.8 0C133.3 0 123.7 0 114.2 0C104.7 0 95.3 0 85.8 0C76.3 0 66.7 0 57.2 0C47.7 0 38.3 0 28.8 0C19.3 0 9.7 0 4.8 0L0 0Z" fill="#f1f5f9" stroke-linecap="round" stroke-linejoin="miter"></path></svg>