<svg id="visual" viewBox="0 0 600 200" width="600" height="200" xmlns="http://www.w3.org/2000/svg" xmlns:xlink="http://www.w3.org/1999/xlink" version="1.1"><path d="M0 50L14.3 53.5C28.7 57 57.3 64 85.8 66.8C114.3 69.7 142.7 68.3 171.2 66.3C199.7 64.3 228.3 61.7 257 65.2C285.7 68.7 314.3 78.3 343 77.2C371.7 76 400.3 64 428.8 62.8C457.3 61.7 485.7 71.3 514.2 71.5C542.7 71.7 571.3 62.3 585.7 57.7L600 53L600 0L585.7 0C571.3 0 542.7 0 514.2 0C485.7 0 457.3 0 428.8 0C400.3 0 371.7 0 343 0C314.3 0 285.7 0 257 0C228.3 0 199.7 0 171.2 0C142.7 0 114.3 0 85.8 0C57.3 0 28.7 0 14.3 0L0 0Z" fill="#f1f5f9" stroke-linecap="round" stroke-linejoin="miter"></path></svg>