<svg id="visual" viewBox="0 0 600 200" width="600" height="200" xmlns="http://www.w3.org/2000/svg" xmlns:xlink="http://www.w3.org/1999/xlink" version="1.1"><path d="M0 57L7.7 58.8C15.3 60.7 30.7 64.3 46 74C61.3 83.7 76.7 99.3 92 116C107.3 132.7 122.7 150.3 138.2 144.8C153.7 139.3 169.3 110.7 184.8 103.8C200.3 97 215.7 112 231 103.5C246.3 95 261.7 63 277 62.8C292.3 62.7 307.7 94.3 323 98.7C338.3 103 353.7 80 369 84C384.3 88 399.7 119 415.2 130.7C430.7 142.3 446.3 134.7 461.8 125.3C477.3 116 492.7 105 508 104.8C523.3 104.7 538.7 115.3 554 111.8C569.3 108.3 584.7 90.7 592.3 81.8L600 73L600 0L592.3 0C584.7 0 569.3 0 554 0C538.7 0 523.3 0 508 0C492.7 0 477.3 0 461.8 0C446.3 0 430.7 0 415.2 0C399.7 0 384.3 0 369 0C353.7 0 338.3 0 323 0C307.7 0 292.3 0 277 0C261.7 0 246.3 0 231 0C215.7 0 200.3 0 184.8 0C169.3 0 153.7 0 138.2 0C122.7 0 107.3 0 92 0C76.7 0 61.3 0 46 0C30.7 0 15.3 0 7.7 0L0 0Z" fill="#f1f5f9" stroke-linecap="round" stroke-linejoin="miter"></path></svg>