<svg id="visual" viewBox="0 0 200 200" width="200" height="200" xmlns="http://www.w3.org/2000/svg" xmlns:xlink="http://www.w3.org/1999/xlink" version="1.1"><path d="M0 35L2.2 36.5C4.3 38 8.7 41 13.2 39.2C17.7 37.3 22.3 30.7 26.8 26C31.3 21.3 35.7 18.7 40 19.7C44.3 20.7 48.7 25.3 53.2 27.2C57.7 29 62.3 28 66.8 26.2C71.3 24.3 75.7 21.7 80 23.5C84.3 25.3 88.7 31.7 93.2 32.2C97.7 32.7 102.3 27.3 106.8 26.7C111.3 26 115.7 30 120 33.5C124.3 37 128.7 40 133.2 37.5C137.7 35 142.3 27 146.8 25C151.3 23 155.7 27 160 27C164.3 27 168.7 23 173.2 24.8C177.7 26.7 182.3 34.3 186.8 37.5C191.3 40.7 195.7 39.3 197.8 38.7L200 38L200 0L197.8 0C195.7 0 191.3 0 186.8 0C182.3 0 177.7 0 173.2 0C168.7 0 164.3 0 160 0C155.7 0 151.3 0 146.8 0C142.3 0 137.7 0 133.2 0C128.7 0 124.3 0 120 0C115.7 0 111.3 0 106.8 0C102.3 0 97.7 0 93.2 0C88.7 0 84.3 0 80 0C75.7 0 71.3 0 66.8 0C62.3 0 57.7 0 53.2 0C48.7 0 44.3 0 40 0C35.7 0 31.3 0 26.8 0C22.3 0 17.7 0 13.2 0C8.7 0 4.3 0 2.2 0L0 0Z" fill="#f1f5f9" stroke-linecap="round" stroke-linejoin="miter"></path></svg>