<svg id="visual" viewBox="0 0 900 350" width="900" height="350" xmlns="http://www.w3.org/2000/svg" xmlns:xlink="http://www.w3.org/1999/xlink" version="1.1"><path d="M0 106L50 195L100 92L150 62L200 87L250 166L300 143L350 183L400 89L450 192L500 62L550 106L600 193L650 79L700 55L750 82L800 177L850 159L900 114L900 351L850 351L800 351L750 351L700 351L650 351L600 351L550 351L500 351L450 351L400 351L350 351L300 351L250 351L200 351L150 351L100 351L50 351L0 351Z" fill="#e1dfdd"></path><path d="M0 157L50 237L100 141L150 216L200 180L250 201L300 157L350 229L400 179L450 151L500 161L550 229L600 161L650 170L700 144L750 226L800 236L850 218L900 177L900 351L850 351L800 351L750 351L700 351L650 351L600 351L550 351L500 351L450 351L400 351L350 351L300 351L250 351L200 351L150 351L100 351L50 351L0 351Z" fill="#f0efee"></path><path d="M0 277L50 275L100 286L150 260L200 216L250 254L300 280L350 285L400 312L450 282L500 287L550 216L600 214L650 272L700 298L750 287L800 269L850 286L900 270L900 351L850 351L800 351L750 351L700 351L650 351L600 351L550 351L500 351L450 351L400 351L350 351L300 351L250 351L200 351L150 351L100 351L50 351L0 351Z" fill="#ffffff"></path></svg>